<svg width="20" height="20" viewBox="0 0 20 20" fill="none" xmlns="http://www.w3.org/2000/svg">
<g id="svg" clip-path="url(#clip0_4004_507)">
<path id="Vector" d="M11.5 19.8676V12.9412H13.8088L14.25 10.0588H11.5V8.20586C11.5 7.41174 11.8824 6.64704 13.1177 6.64704H14.3677V4.20586C13.6128 4.0784 12.8726 4.01468 12.1471 4.01468C9.88236 4.01468 8.39706 5.39704 8.39706 7.88233V10.0588H5.88236V12.9412H8.39706V19.8676C3.66177 19.1323 0.0294189 15.0147 0.0294189 10.0588C0.0294189 4.58821 4.47059 0.132324 9.95589 0.132324C15.4265 0.132324 19.8824 4.58821 19.8824 10.0588C19.8824 15.0147 16.25 19.1323 11.5 19.8676Z" fill="#4676ED"/>
<path id="Vector_2" d="M11.5 12.9411V19.8676C11 19.946 10.4853 19.9852 9.95585 19.9852C9.42644 19.9852 8.90684 19.946 8.39703 19.8676V12.9411H5.88232V10.0588H8.39703V7.8823C8.39703 5.397 9.88232 4.01465 12.147 4.01465C12.8725 4.01465 13.6127 4.07837 14.3676 4.20583V6.647H13.1176C11.8823 6.647 11.5 7.41171 11.5 8.20583V10.0588H14.25L13.8088 12.9411H11.5Z" fill="white"/>
</g>
<defs>
<clipPath id="clip0_4004_507">
<rect width="20" height="20" fill="white"/>
</clipPath>
</defs>
</svg>
