<svg width="20" height="20" viewBox="0 0 20 20" fill="none" xmlns="http://www.w3.org/2000/svg">
<g id="svg" clip-path="url(#clip0_4004_513)">
<path id="Vector" d="M19.9135 9.99996C19.9135 15.467 15.4752 19.92 9.99349 19.92C4.51177 19.92 0.0734863 15.467 0.0734863 9.99996C0.0734863 4.51824 4.51177 0.0799561 9.99349 0.0799561C15.4752 0.0799561 19.9135 4.51824 19.9135 9.99996Z" fill="#DA0000"/>
<path id="Vector_2" fill-rule="evenodd" clip-rule="evenodd" d="M16.6068 9.99994C16.6068 11.4304 16.5138 12.4885 16.3276 13.1743C16.1806 13.7475 15.725 14.1884 15.1666 14.35C14.4709 14.5362 12.7466 14.6293 9.99346 14.6293C7.24036 14.6293 5.51598 14.5362 4.82036 14.35C4.2619 14.1884 3.80632 13.7475 3.65936 13.1743C3.47321 12.4885 3.38013 11.4304 3.38013 9.99994C3.38013 8.5597 3.47321 7.49667 3.65936 6.81084C3.80632 6.23769 4.2619 5.7968 4.82036 5.63514C5.51598 5.45878 7.24036 5.37061 9.99346 5.37061C12.7466 5.37061 14.4709 5.45878 15.1666 5.63514C15.725 5.7968 16.1806 6.23769 16.3276 6.81084C16.5138 7.49667 16.6068 8.5597 16.6068 9.99994ZM12.1097 9.99994L8.67079 8.01594V11.9839L12.1097 9.99994Z" fill="white"/>
</g>
<defs>
<clipPath id="clip0_4004_513">
<rect width="19.987" height="19.84" fill="white" transform="translate(0 0.0799561)"/>
</clipPath>
</defs>
</svg>
