<svg width="20" height="20" viewBox="0 0 20 20" fill="none" xmlns="http://www.w3.org/2000/svg">
<g id="svg" clip-path="url(#clip0_4004_518)">
<path id="Vector" d="M9.97054 19.8824C4.49995 19.8824 0.0440674 15.4265 0.0440674 9.95589C0.0440674 4.47059 4.49995 0.0294189 9.97054 0.0294189C15.4558 0.0294189 19.897 4.47059 19.897 9.95589C19.897 15.4265 15.4558 19.8824 9.97054 19.8824Z" fill="url(#paint0_linear_4004_518)"/>
<path id="Vector_2" d="M6.80877 9.83818L13.3676 6.76465L10.7499 11.7941C9.19112 13.4215 8.35778 14.2352 8.24994 14.2352C8.1421 14.2352 8.03916 14.1372 7.94112 13.9411L6.76465 10.6764L6.80877 9.83818Z" fill="#C8DAEA"/>
<path id="Vector_3" d="M10.1912 12.6029C9.72061 12.9852 9.24021 13.4215 8.75002 13.9117C8.25983 14.4019 8.04414 14.4019 8.10296 13.9117L8.32355 11.5146L10.1912 12.6029Z" fill="#A9C6D8"/>
<path id="Vector_4" d="M6.79412 10.7941L4.36765 10C4.17157 9.92157 4.10784 9.79413 4.17647 9.61766C4.19118 9.55883 4.23529 9.5147 4.33823 9.44117C4.70098 9.18627 8.01471 7.93138 14.2794 5.67648C14.4559 5.61765 14.598 5.60785 14.7059 5.64707C14.7794 5.67648 14.8235 5.70589 14.8529 5.82354C14.8676 5.86765 14.8824 5.95589 14.8824 6.04413C14.8824 6.10295 14.8676 6.16177 14.8676 6.25001C14.8284 6.86765 14.2353 9.4706 13.0882 14.0588C13.0294 14.3333 12.8774 14.4755 12.6324 14.4853C12.4853 14.4853 12.3235 14.4559 12.1324 14.2941C11.4118 13.6765 8.92647 12 8.36765 11.6324C8.33824 11.6029 8.33823 11.5882 8.32353 11.5588C8.32353 11.5294 8.33824 11.5 8.36765 11.4706C11.2598 8.90196 12.7402 7.48039 12.8088 7.20589C12.8235 7.17648 12.7941 7.16177 12.75 7.17648C12.4559 7.27942 7.47059 10.4412 6.91176 10.7794C6.89216 10.799 6.85294 10.8039 6.79412 10.7941Z" fill="white"/>
</g>
<defs>
<linearGradient id="paint0_linear_4004_518" x1="-0.25005" y1="19.8824" x2="-0.25005" y2="0.0294189" gradientUnits="userSpaceOnUse">
<stop stop-color="#1D93D2"/>
<stop offset="1" stop-color="#38B0E3"/>
</linearGradient>
<clipPath id="clip0_4004_518">
<rect width="20" height="20" fill="white"/>
</clipPath>
</defs>
</svg>
