<svg width="20" height="20" viewBox="0 0 20 20" fill="none" xmlns="http://www.w3.org/2000/svg">
<g id="svg" clip-path="url(#clip0_4004_525)">
<path id="Vector" d="M19.9706 10.0588C19.9706 15.5441 15.5294 19.9853 10.0441 19.9853C4.57356 19.9853 0.117676 15.5441 0.117676 10.0588C0.117676 4.58821 4.57356 0.132324 10.0441 0.132324C15.5294 0.132324 19.9706 4.58821 19.9706 10.0588Z" fill="#5A99EC"/>
<path id="Vector_2" d="M4 14.603C4.20588 14.6226 4.41666 14.6324 4.63235 14.6324C5.86765 14.6324 7 14.2206 7.91176 13.5C6.75 13.4853 5.77941 12.7206 5.44118 11.6765C5.59804 11.7059 5.76471 11.7206 5.94118 11.7206C6.17647 11.7206 6.40685 11.6912 6.63235 11.6324C5.42647 11.3824 4.51471 10.3236 4.51471 9.04414C4.51471 9.03433 4.51471 9.02452 4.51471 9.01473C4.86765 9.2059 5.27941 9.32355 5.70588 9.33826C5 8.86767 4.54412 8.05885 4.54412 7.14708C4.54412 6.66179 4.67647 6.22061 4.89706 5.82355C6.19118 7.41179 8.13235 8.47061 10.3235 8.57355C10.2843 8.38727 10.2647 8.1863 10.2647 7.97061C10.2647 6.51473 11.4412 5.33826 12.8971 5.33826C13.6618 5.33826 14.3382 5.66179 14.8235 6.17649C15.4265 6.05885 15.9853 5.83826 16.5 5.52943C16.2941 6.14708 15.8824 6.66179 15.3382 6.98532C15.8676 6.92649 16.3824 6.79414 16.8529 6.57355C16.5 7.10296 16.0441 7.57355 15.5294 7.9412C15.5393 8.05885 15.5441 8.17158 15.5441 8.27943C15.5441 11.7647 12.8971 15.7794 8.04412 15.7794C6.55882 15.7794 5.16176 15.353 4 14.603Z" fill="white"/>
</g>
<defs>
<clipPath id="clip0_4004_525">
<rect width="20" height="20" fill="white"/>
</clipPath>
</defs>
</svg>
